# xmcd
#
# Track frame offsets: 
#        150
#        17085
#        33697
#        54997
#        78231
#        98786
#        127465
#        142587
#        161969
#        187553
#        204155
#        222757
#        243505
#        265475
#        284563
#        300835
#        317075
#
# Disc length: 4759 seconds
#
# Revision: 0
# Processed by: cddbd v1.5.2PL0 Copyright (c) Steve Scherf et al.
# Submitted via: ExactAudioCopy v1.3
#
DISCID=e9129511
DTITLE=Various Artist - Akella Presents - vol. 186 - Blues-Rock  CD1
DYEAR=2019
DGENRE=Rock
TTITLE0=True Strays - Homesick Blues
TTITLE1=Highway Hunters - It's Time
TTITLE2=Juniper Inc. - Electric Voodoo
TTITLE3=Moderate Pace - Feel The Heat
TTITLE4=Julian Sas - Get on up
TTITLE5=Matt Pearce and The Mutiny - Set Me Free
TTITLE6=Dave Steffen Band - Hear That Train
TTITLE7=Billy Hector - Someday Baby
TTITLE8=Bassment - Bad Blues
TTITLE9=Joost De Lange - Leave This Town
TTITLE10=Christone Kingfish Ingram - Outside Of This Town
TTITLE11=Bacon Fat - Burning Desire
TTITLE12=Rattlebone - Don't Go Down That Road
TTITLE13=Tim Brooks and The Alien Sharecroppers - Primitive
TTITLE14=Blindside Thunder - Fear In Your Eyes
TTITLE15=Blues Saraceno - Here Comes the Enemy
TTITLE16=Peer Gynt - Elskovs Paradis
EXTD=
EXTT0=
EXTT1=
EXTT2=
EXTT3=
EXTT4=
EXTT5=
EXTT6=
EXTT7=
EXTT8=
EXTT9=
EXTT10=
EXTT11=
EXTT12=
EXTT13=
EXTT14=
EXTT15=
EXTT16=
PLAYORDER=
